<svg xmlns="http://www.w3.org/2000/svg" viewBox="0 0 1440 320"><path fill="#f3f4f5" fill-opacity="1" d="M0,192L34.3,181.3C68.6,171,137,149,206,165.3C274.3,181,343,235,411,234.7C480,235,549,181,617,165.3C685.7,149,754,171,823,186.7C891.4,203,960,213,1029,229.3C1097.1,245,1166,267,1234,250.7C1302.9,235,1371,181,1406,154.7L1440,128L1440,320L1405.7,320C1371.4,320,1303,320,1234,320C1165.7,320,1097,320,1029,320C960,320,891,320,823,320C754.3,320,686,320,617,320C548.6,320,480,320,411,320C342.9,320,274,320,206,320C137.1,320,69,320,34,320L0,320Z"></path></svg>